<svg width="472" height="158" viewBox="0 0 472 158" fill="none" xmlns="http://www.w3.org/2000/svg">
<g clip-path="url(#clip0_487_779)">
<mask id="mask0_487_779" style="mask-type:luminance" maskUnits="userSpaceOnUse" x="0" y="0" width="472" height="158">
<path d="M472 0H0V158H472V0Z" fill="white"/>
</mask>
<g mask="url(#mask0_487_779)">
<path d="M222.613 41.7031H205.736C204.281 41.7031 203.102 42.8826 203.102 44.3375V59.7829C203.102 61.2378 204.281 62.4172 205.736 62.4172H222.613C224.067 62.4172 225.247 61.2378 225.247 59.7829V44.3375C225.247 42.8826 224.067 41.7031 222.613 41.7031Z" fill="#FD8B4F" stroke="#FD8B4F" stroke-width="0.752667"/>
<path d="M266.265 41.7031H249.388C247.933 41.7031 246.754 42.8826 246.754 44.3375V59.7829C246.754 61.2378 247.933 62.4172 249.388 62.4172H266.265C267.72 62.4172 268.899 61.2378 268.899 59.7829V44.3375C268.899 42.8826 267.72 41.7031 266.265 41.7031Z" fill="#FD8B4F" stroke="#FD8B4F" stroke-width="0.752667"/>
<path d="M277.71 98.2305H260.834C259.379 98.2305 258.199 99.4099 258.199 100.865V116.31C258.199 117.765 259.379 118.945 260.834 118.945H277.71C279.165 118.945 280.345 117.765 280.345 116.31V100.865C280.345 99.4099 279.165 98.2305 277.71 98.2305Z" fill="#FD8B4F" stroke="#FD8B4F" stroke-width="0.752667"/>
<path d="M211.163 98.2305H194.287C192.832 98.2305 191.652 99.4099 191.652 100.865V116.31C191.652 117.765 192.832 118.945 194.287 118.945H211.163C212.618 118.945 213.798 117.765 213.798 116.31V100.865C213.798 99.4099 212.618 98.2305 211.163 98.2305Z" fill="#FD8B4F" stroke="#FD8B4F" stroke-width="0.752667"/>
<path d="M262.326 82.8477H210.029C208.574 82.8477 207.395 84.0271 207.395 85.482V100.927C207.395 102.382 208.574 103.562 210.029 103.562H262.326C263.781 103.562 264.96 102.382 264.96 100.927V85.482C264.96 84.0271 263.781 82.8477 262.326 82.8477Z" fill="#FD8B4F" stroke="#FD8B4F" stroke-width="0.752667"/>
<path d="M291.232 15.168H180.77C165.306 15.168 152.77 27.704 152.77 43.168V117.479C152.77 132.943 165.306 145.479 180.77 145.479H291.232C306.695 145.479 319.232 132.943 319.232 117.479V43.168C319.232 27.704 306.695 15.168 291.232 15.168Z" stroke="#FD8B4F" stroke-width="24"/>
<path d="M26.4019 0.523438H6.30177C2.84297 0.523438 0.0390625 3.32735 0.0390625 6.78615V71.8564C0.0390625 75.3152 2.84297 78.1191 6.30177 78.1191H26.4019C29.8607 78.1191 32.6646 75.3152 32.6646 71.8564V6.78615C32.6646 3.32735 29.8607 0.523438 26.4019 0.523438Z" fill="#FD8B4F"/>
<path d="M26.4019 0.523438H6.30177C2.84297 0.523438 0.0390625 3.32735 0.0390625 6.78615V71.8564C0.0390625 75.3152 2.84297 78.1191 6.30177 78.1191H26.4019C29.8607 78.1191 32.6646 75.3152 32.6646 71.8564V6.78615C32.6646 3.32735 29.8607 0.523438 26.4019 0.523438Z" stroke="#FD8B4F"/>
<path d="M102.234 3.16797H82.1338C78.675 3.16797 75.8711 5.97188 75.8711 9.43068V151.215C75.8711 154.674 78.675 157.478 82.1338 157.478H102.234C105.693 157.478 108.497 154.674 108.497 151.215V9.43068C108.497 5.97188 105.693 3.16797 102.234 3.16797Z" fill="#FD8B4F"/>
<path d="M102.234 3.16797H82.1338C78.675 3.16797 75.8711 5.97188 75.8711 9.43068V151.215C75.8711 154.674 78.675 157.478 82.1338 157.478H102.234C105.693 157.478 108.497 154.674 108.497 151.215V9.43068C108.497 5.97188 105.693 3.16797 102.234 3.16797Z" stroke="#FD8B4F"/>
<path d="M16.793 64.9815V85.0815C16.793 88.5403 19.5969 91.3443 23.0557 91.3443H88.126C91.5848 91.3443 94.3887 88.5403 94.3887 85.0815V64.9815C94.3887 61.5227 91.5848 58.7188 88.126 58.7188H23.0557C19.5969 58.7188 16.793 61.5227 16.793 64.9815Z" fill="#FD8B4F"/>
<path d="M16.793 64.9815V85.0815C16.793 88.5403 19.5969 91.3443 23.0557 91.3443H88.126C91.5848 91.3443 94.3887 88.5403 94.3887 85.0815V64.9815C94.3887 61.5227 91.5848 58.7188 88.126 58.7188H23.0557C19.5969 58.7188 16.793 61.5227 16.793 64.9815Z" stroke="#FD8B4F"/>
<path d="M389.867 0.523438H369.767C366.308 0.523438 363.504 3.32735 363.504 6.78615V71.8564C363.504 75.3152 366.308 78.1191 369.767 78.1191H389.867C393.325 78.1191 396.129 75.3152 396.129 71.8564V6.78615C396.129 3.32735 393.325 0.523438 389.867 0.523438Z" fill="#FD8B4F"/>
<path d="M389.867 0.523438H369.767C366.308 0.523438 363.504 3.32735 363.504 6.78615V71.8564C363.504 75.3152 366.308 78.1191 369.767 78.1191H389.867C393.325 78.1191 396.129 75.3152 396.129 71.8564V6.78615C396.129 3.32735 393.325 0.523438 389.867 0.523438Z" stroke="#FD8B4F"/>
<path d="M465.699 3.16797H445.599C442.14 3.16797 439.336 5.97188 439.336 9.43068V151.215C439.336 154.674 442.14 157.478 445.599 157.478H465.699C469.157 157.478 471.961 154.674 471.961 151.215V9.43068C471.961 5.97188 469.157 3.16797 465.699 3.16797Z" fill="#FD8B4F"/>
<path d="M465.699 3.16797H445.599C442.14 3.16797 439.336 5.97188 439.336 9.43068V151.215C439.336 154.674 442.14 157.478 445.599 157.478H465.699C469.157 157.478 471.961 154.674 471.961 151.215V9.43068C471.961 5.97188 469.157 3.16797 465.699 3.16797Z" stroke="#FD8B4F"/>
<path d="M380.254 64.9815V85.0816C380.254 88.5404 383.058 91.3443 386.517 91.3443H451.587C455.046 91.3443 457.85 88.5404 457.85 85.0816V64.9815C457.85 61.5227 455.046 58.7188 451.587 58.7188H386.517C383.058 58.7188 380.254 61.5227 380.254 64.9815Z" fill="#FD8B4F"/>
<path d="M380.254 64.9815V85.0816C380.254 88.5404 383.058 91.3443 386.517 91.3443H451.587C455.046 91.3443 457.85 88.5404 457.85 85.0816V64.9815C457.85 61.5227 455.046 58.7188 451.587 58.7188H386.517C383.058 58.7188 380.254 61.5227 380.254 64.9815Z" stroke="#FD8B4F"/>
</g>
</g>
<defs>
<clipPath id="clip0_487_779">
<rect width="472" height="158" fill="white"/>
</clipPath>
</defs>
</svg>
